# xmcd CD database file
#
# Track frame offsets:
#	150
#	8559
#	18514
#	24160
#	29689
#	36452
#	46226
#	59124
#	96564
#	116527
#	128532
#	146135
#	160227
#	173304
#	217889
#	247615
#	294460
#
# Disc length: 4345 seconds
#
# Revision: 0
# Processed by: cddbd v1.5.1PL2 Copyright (c) Steve Scherf et al.
# Submitted via: Feurio! 1.68 - http://www.feurio.com
#
DISCID=e110f711
DTITLE=Eric Burdon and War. - The Black-Man's Burdon
DYEAR=1900
DGENRE=Bluesrock
TTITLE0=Eric Burdon - Black On Black On Black
TTITLE1=Eric Burdon - Paint It Black I
TTITLE2=Eric Burdon - Laurel and Hardy
TTITLE3=Eric Burdon - Pintel Negro II
TTITLE4=Eric Burdon - P.C. 3
TTITLE5=Eric Burdon - Black Bird
TTITLE6=Eric Burdon - Paint It Black III
TTITLE7=Eric Burdon - Spirit
TTITLE8=Eric Burdon - Nights In White Satin I
TTITLE9=Eric Burdon - The Bird and The Squirrel
TTITLE10=Eric Burdon - Nuts, Seeds and Life
TTITLE11=Eric Burdon - Out Of Nowhere
TTITLE12=Eric Burdon - Nights In White Satin II
TTITLE13=Eric Burdon - Sun , Moon
TTITLE14=Eric Burdon - Pretty Colors
TTITLE15=Eric Burdon - Gun , Jimbo
TTITLE16=Eric Burdon - Bare Back Ride
EXTD=
EXTT0=
EXTT1=
EXTT2=
EXTT3=
EXTT4=
EXTT5=
EXTT6=
EXTT7=
EXTT8=
EXTT9=
EXTT10=
EXTT11=
EXTT12=
EXTT13=
EXTT14=
EXTT15=
EXTT16=
PLAYORDER=
